<?xml version="1.0" standalone="no"?>
<!DOCTYPE svg PUBLIC "-//W3C//DTD SVG 20010904//EN"
 "http://www.w3.org/TR/2001/REC-SVG-20010904/DTD/svg10.dtd">
<svg version="1.0" xmlns="http://www.w3.org/2000/svg"
 width="500.000000pt" height="500.000000pt" viewBox="0 0 500.000000 500.000000"
 preserveAspectRatio="xMidYMid meet">

<g transform="translate(0.000000,500.000000) scale(0.100000,-0.100000)"
fill="#000000" stroke="none">
<path d="M1515 3404 c-11 -2 -43 -9 -72 -15 -66 -13 -133 -58 -160 -107 -34
-59 -43 -119 -52 -338 -8 -190 -10 -207 -34 -256 -30 -61 -73 -94 -134 -104
l-43 -7 0 -113 0 -114 28 0 c15 0 48 -10 72 -22 36 -18 51 -34 74 -80 28 -56
29 -64 37 -275 5 -120 13 -235 18 -255 16 -65 78 -134 149 -164 34 -14 178
-33 250 -34 l32 0 0 115 0 115 -50 0 c-71 0 -118 22 -134 62 -8 20 -16 98 -20
193 -7 173 -23 270 -55 332 -20 39 -92 113 -111 113 -23 0 -6 27 39 61 90 69
117 161 127 424 3 88 10 173 16 188 14 36 50 54 126 63 l62 7 0 108 0 109 -72
-1 c-40 -1 -82 -3 -93 -5z"/>
<path d="M3325 3301 l0 -109 64 -6 c68 -6 103 -23 123 -58 7 -14 15 -94 19
-203 8 -201 20 -271 55 -331 22 -39 71 -89 111 -113 17 -11 16 -13 -7 -28
-119 -81 -160 -202 -160 -468 0 -132 -11 -175 -51 -209 -25 -22 -41 -26 -90
-26 l-59 0 0 -115 0 -115 28 0 c52 0 207 21 242 32 47 15 136 106 150 155 6
21 15 133 20 250 11 294 34 353 150 387 30 9 57 16 60 16 3 0 6 49 8 110 2
100 1 110 -15 110 -42 0 -99 24 -129 54 -49 49 -62 111 -72 351 -8 183 -12
216 -31 260 -12 27 -32 60 -44 73 -53 57 -168 92 -301 92 l-71 0 0 -109z"/>
</g>
</svg>
